<svg width="195" height="42" viewBox="0 0 195 42" fill="none" xmlns="http://www.w3.org/2000/svg">
<path d="M22.95 5.9V12.75H8.65V20.15H19.35V26.8H8.65V41H0.1V5.9H22.95ZM35.9938 17.75C36.9938 16.2167 38.2438 15.0167 39.7438 14.15C41.2438 13.25 42.9104 12.8 44.7438 12.8V21.85H42.3938C40.2604 21.85 38.6604 22.3167 37.5938 23.25C36.5271 24.15 35.9938 25.75 35.9938 28.05V41H27.4438V13.1H35.9938V17.75ZM53.1305 10.2C51.6305 10.2 50.3971 9.76666 49.4305 8.9C48.4971 8 48.0305 6.9 48.0305 5.6C48.0305 4.26667 48.4971 3.16666 49.4305 2.3C50.3971 1.4 51.6305 0.949997 53.1305 0.949997C54.5971 0.949997 55.7971 1.4 56.7305 2.3C57.6971 3.16666 58.1805 4.26667 58.1805 5.6C58.1805 6.9 57.6971 8 56.7305 8.9C55.7971 9.76666 54.5971 10.2 53.1305 10.2ZM57.3805 13.1V41H48.8305V13.1H57.3805ZM89.8766 26.6C89.8766 27.4 89.8266 28.2333 89.7266 29.1H70.3766C70.5099 30.8333 71.0599 32.1667 72.0266 33.1C73.0266 34 74.2432 34.45 75.6766 34.45C77.8099 34.45 79.2932 33.55 80.1266 31.75H89.2266C88.7599 33.5833 87.9099 35.2333 86.6766 36.7C85.4766 38.1667 83.9599 39.3167 82.1266 40.15C80.2932 40.9833 78.2432 41.4 75.9766 41.4C73.2432 41.4 70.8099 40.8167 68.6766 39.65C66.5432 38.4833 64.8766 36.8167 63.6766 34.65C62.4766 32.4833 61.8766 29.95 61.8766 27.05C61.8766 24.15 62.4599 21.6167 63.6266 19.45C64.8266 17.2833 66.4932 15.6167 68.6266 14.45C70.7599 13.2833 73.2099 12.7 75.9766 12.7C78.6766 12.7 81.0766 13.2667 83.1766 14.4C85.2766 15.5333 86.9099 17.15 88.0766 19.25C89.2766 21.35 89.8766 23.8 89.8766 26.6ZM81.1266 24.35C81.1266 22.8833 80.6266 21.7167 79.6266 20.85C78.6266 19.9833 77.3766 19.55 75.8766 19.55C74.4432 19.55 73.2266 19.9667 72.2266 20.8C71.2599 21.6333 70.6599 22.8167 70.4266 24.35H81.1266ZM111.387 12.8C114.654 12.8 117.254 13.8667 119.187 16C121.154 18.1 122.137 21 122.137 24.7V41H113.637V25.85C113.637 23.9833 113.154 22.5333 112.187 21.5C111.22 20.4667 109.92 19.95 108.287 19.95C106.654 19.95 105.354 20.4667 104.387 21.5C103.42 22.5333 102.937 23.9833 102.937 25.85V41H94.3871V13.1H102.937V16.8C103.804 15.5667 104.97 14.6 106.437 13.9C107.904 13.1667 109.554 12.8 111.387 12.8ZM126.379 27C126.379 24.1333 126.912 21.6167 127.979 19.45C129.079 17.2833 130.562 15.6167 132.429 14.45C134.295 13.2833 136.379 12.7 138.679 12.7C140.512 12.7 142.179 13.0833 143.679 13.85C145.212 14.6167 146.412 15.65 147.279 16.95V4H155.829V41H147.279V37C146.479 38.3333 145.329 39.4 143.829 40.2C142.362 41 140.645 41.4 138.679 41.4C136.379 41.4 134.295 40.8167 132.429 39.65C130.562 38.45 129.079 36.7667 127.979 34.6C126.912 32.4 126.379 29.8667 126.379 27ZM147.279 27.05C147.279 24.9167 146.679 23.2333 145.479 22C144.312 20.7667 142.879 20.15 141.179 20.15C139.479 20.15 138.029 20.7667 136.829 22C135.662 23.2 135.079 24.8667 135.079 27C135.079 29.1333 135.662 30.8333 136.829 32.1C138.029 33.3333 139.479 33.95 141.179 33.95C142.879 33.95 144.312 33.3333 145.479 32.1C146.679 30.8667 147.279 29.1833 147.279 27.05ZM170.564 4V41H162.014V4H170.564ZM185.31 17.75C186.31 16.2167 187.56 15.0167 189.06 14.15C190.56 13.25 192.227 12.8 194.06 12.8V21.85H191.71C189.577 21.85 187.977 22.3167 186.91 23.25C185.843 24.15 185.31 25.75 185.31 28.05V41H176.76V13.1H185.31V17.75Z" fill="#1593AF"/>
<path d="M22.95 5.9V12.75H8.65V20.15H19.35V26.8H8.65V41H0.1V5.9H22.95ZM35.9938 17.75C36.9938 16.2167 38.2438 15.0167 39.7438 14.15C41.2438 13.25 42.9104 12.8 44.7438 12.8V21.85H42.3938C40.2604 21.85 38.6604 22.3167 37.5938 23.25C36.5271 24.15 35.9938 25.75 35.9938 28.05V41H27.4438V13.1H35.9938V17.75ZM53.1305 10.2C51.6305 10.2 50.3971 9.76666 49.4305 8.9C48.4971 8 48.0305 6.9 48.0305 5.6C48.0305 4.26667 48.4971 3.16666 49.4305 2.3C50.3971 1.4 51.6305 0.949997 53.1305 0.949997C54.5971 0.949997 55.7971 1.4 56.7305 2.3C57.6971 3.16666 58.1805 4.26667 58.1805 5.6C58.1805 6.9 57.6971 8 56.7305 8.9C55.7971 9.76666 54.5971 10.2 53.1305 10.2ZM57.3805 13.1V41H48.8305V13.1H57.3805ZM89.8766 26.6C89.8766 27.4 89.8266 28.2333 89.7266 29.1H70.3766C70.5099 30.8333 71.0599 32.1667 72.0266 33.1C73.0266 34 74.2432 34.45 75.6766 34.45C77.8099 34.45 79.2932 33.55 80.1266 31.75H89.2266C88.7599 33.5833 87.9099 35.2333 86.6766 36.7C85.4766 38.1667 83.9599 39.3167 82.1266 40.15C80.2932 40.9833 78.2432 41.4 75.9766 41.4C73.2432 41.4 70.8099 40.8167 68.6766 39.65C66.5432 38.4833 64.8766 36.8167 63.6766 34.65C62.4766 32.4833 61.8766 29.95 61.8766 27.05C61.8766 24.15 62.4599 21.6167 63.6266 19.45C64.8266 17.2833 66.4932 15.6167 68.6266 14.45C70.7599 13.2833 73.2099 12.7 75.9766 12.7C78.6766 12.7 81.0766 13.2667 83.1766 14.4C85.2766 15.5333 86.9099 17.15 88.0766 19.25C89.2766 21.35 89.8766 23.8 89.8766 26.6ZM81.1266 24.35C81.1266 22.8833 80.6266 21.7167 79.6266 20.85C78.6266 19.9833 77.3766 19.55 75.8766 19.55C74.4432 19.55 73.2266 19.9667 72.2266 20.8C71.2599 21.6333 70.6599 22.8167 70.4266 24.35H81.1266ZM111.387 12.8C114.654 12.8 117.254 13.8667 119.187 16C121.154 18.1 122.137 21 122.137 24.7V41H113.637V25.85C113.637 23.9833 113.154 22.5333 112.187 21.5C111.22 20.4667 109.92 19.95 108.287 19.95C106.654 19.95 105.354 20.4667 104.387 21.5C103.42 22.5333 102.937 23.9833 102.937 25.85V41H94.3871V13.1H102.937V16.8C103.804 15.5667 104.97 14.6 106.437 13.9C107.904 13.1667 109.554 12.8 111.387 12.8ZM126.379 27C126.379 24.1333 126.912 21.6167 127.979 19.45C129.079 17.2833 130.562 15.6167 132.429 14.45C134.295 13.2833 136.379 12.7 138.679 12.7C140.512 12.7 142.179 13.0833 143.679 13.85C145.212 14.6167 146.412 15.65 147.279 16.95V4H155.829V41H147.279V37C146.479 38.3333 145.329 39.4 143.829 40.2C142.362 41 140.645 41.4 138.679 41.4C136.379 41.4 134.295 40.8167 132.429 39.65C130.562 38.45 129.079 36.7667 127.979 34.6C126.912 32.4 126.379 29.8667 126.379 27ZM147.279 27.05C147.279 24.9167 146.679 23.2333 145.479 22C144.312 20.7667 142.879 20.15 141.179 20.15C139.479 20.15 138.029 20.7667 136.829 22C135.662 23.2 135.079 24.8667 135.079 27C135.079 29.1333 135.662 30.8333 136.829 32.1C138.029 33.3333 139.479 33.95 141.179 33.95C142.879 33.95 144.312 33.3333 145.479 32.1C146.679 30.8667 147.279 29.1833 147.279 27.05ZM170.564 4V41H162.014V4H170.564ZM185.31 17.75C186.31 16.2167 187.56 15.0167 189.06 14.15C190.56 13.25 192.227 12.8 194.06 12.8V21.85H191.71C189.577 21.85 187.977 22.3167 186.91 23.25C185.843 24.15 185.31 25.75 185.31 28.05V41H176.76V13.1H185.31V17.75Z" fill="url(#paint0_linear)"/>
<defs>
<linearGradient id="paint0_linear" x1="96.5" y1="-14" x2="96.5" y2="61" gradientUnits="userSpaceOnUse">
<stop offset="0.12" stop-color="#1787C6"/>
<stop offset="0.64" stop-color="#0F9DA7"/>
</linearGradient>
</defs>
</svg>
